<?xml version="1.0" encoding="utf-8"?><svg xml:space="preserve" viewBox="0 0 128 128" y="0px" x="0px" xmlns:xlink="http://www.w3.org/1999/xlink" xmlns="http://www.w3.org/2000/svg" id="Layer_1" version="1.1" width="128px" height="128px" style="width:100%;height:100%;background-size:initial;background-repeat-y:initial;background-repeat-x:initial;background-position-y:initial;background-position-x:initial;background-origin:initial;background-image:initial;background-color:rgb(241, 242, 243);background-clip:initial;background-attachment:initial;animation-play-state:paused" ><g class="ldl-scale" style="transform-origin:50% 50%;transform:rotate(0deg) scale(0.8, 0.8);animation-play-state:paused" ><style type="text/css" style="animation-play-state:paused" >.st0{fill:none}.st1{fill:#f7b26a}.st2{fill:#e15c64}</style>
<path d="z" class="st0" style="animation-play-state:paused" ></path>
<g style="animation-play-state:paused" ><g style="animation-play-state:paused" ><path d="M42.2,14.1c-5.6,2.4-10.9,5.9-15.5,10.2l4.1,4.1c4.4,4.4,11,5.4,16.5,2.7c4.6-2.3,9.6-3.6,14.8-3.8 C62.2,16.9,51.7,10,42.2,14.1z" class="st1" style="fill:rgb(21, 33, 43);animation-play-state:paused" ></path></g>
<g style="animation-play-state:paused" ><path d="M14.1,85.8c2.4,5.6,5.9,10.9,10.2,15.5l4.1-4.1c4.4-4.4,5.4-11,2.7-16.5c-2.3-4.6-3.6-9.6-3.8-14.8 C16.9,65.8,10,76.3,14.1,85.8z" class="st1" style="fill:rgb(21, 33, 43);animation-play-state:paused" ></path></g>
<g style="animation-play-state:paused" ><path d="M113.9,42.2c-2.4-5.6-5.9-10.9-10.2-15.5l-4.1,4.1c-4.4,4.4-5.4,11-2.7,16.5c2.3,4.6,3.6,9.6,3.8,14.8 C111.1,62.2,118,51.7,113.9,42.2z" class="st1" style="fill:rgb(21, 33, 43);animation-play-state:paused" ></path></g>
<g style="animation-play-state:paused" ><path d="M85.8,113.9c5.6-2.4,10.9-5.9,15.5-10.2l-4.1-4.1c-4.4-4.4-11-5.4-16.5-2.7c-4.6,2.3-9.6,3.6-14.8,3.8 C65.8,111.1,76.3,118,85.8,113.9z" class="st1" style="fill:rgb(21, 33, 43);animation-play-state:paused" ></path></g></g>
<g style="animation-play-state:paused" ><g style="animation-play-state:paused" ><path d="M88.8,36.7c-3.8-3.6-8.3-6.1-13.2-7.7c-5.9-1.9-9.9-7.4-9.9-13.6V9.6C72.1,9.9,78.2,11,84,13.3 C93.4,17,96.1,29.4,88.8,36.7z" class="st2" style="fill:rgb(32, 70, 81);animation-play-state:paused" ></path></g>
<g style="animation-play-state:paused" ><path d="M13.3,44C11,49.8,9.9,55.9,9.6,62.2h5.8c6.1,0,11.6-4,13.6-9.9c1.7-4.9,4.2-9.3,7.8-13.2 C29.4,31.9,17,34.6,13.3,44z" class="st2" style="fill:rgb(32, 70, 81);animation-play-state:paused" ></path></g>
<g style="animation-play-state:paused" ><path d="M114.7,84c2.3-5.8,3.5-11.9,3.7-18.2h-5.8c-6.1,0-11.6,4-13.6,9.9c-1.7,4.9-4.2,9.3-7.8,13.2 C98.6,96.1,111,93.4,114.7,84z" class="st2" style="fill:rgb(32, 70, 81);animation-play-state:paused" ></path></g>
<g style="animation-play-state:paused" ><path d="M44,114.7c5.8,2.3,11.9,3.5,18.2,3.7v-5.8c0-6.1-4-11.6-9.9-13.6c-4.9-1.7-9.3-4.2-13.2-7.8 C31.9,98.6,34.6,111,44,114.7z" class="st2" style="fill:rgb(32, 70, 81);animation-play-state:paused" ></path></g></g>
<path d="z" class="st0" style="animation-play-state:paused" ></path>
<metadata xmlns:d="https://loading.io/stock/" style="animation-play-state:paused" ><d:name style="animation-play-state:paused" >leaf</d:name>


<d:tags style="animation-play-state:paused" >crown,laurel,spin,wheel,wreath,flower,leaf,spinner</d:tags>


<d:license style="animation-play-state:paused" >by</d:license>


<d:slug style="animation-play-state:paused" >zbvw97</d:slug></metadata></g><!-- generated by https://loading.io/ --></svg>