<?xml version="1.0" encoding="UTF-8"?>
<svg width="40px" height="22px" viewBox="0 0 40 22" version="1.1" xmlns="http://www.w3.org/2000/svg" xmlns:xlink="http://www.w3.org/1999/xlink">
    <title>grass pot</title>
    <g id="Page-1" stroke="none" stroke-width="1" fill="none" fill-rule="evenodd">
        <g id="Home" transform="translate(-26.000000, -63.000000)" fill="#000000">
            <g id="Layer_1" transform="translate(26.000000, 63.000000)">
                <path d="M11.3422876,21.3685308 C9.69978765,16.9490046 6.25728765,9.75753385 0.688537647,7.43088155 C0.204787647,7.23050001 -0.0652123535,6.72954616 0.0135376465,6.21746001 C0.103537647,5.70537385 0.531037647,5.32687539 1.05978765,5.29347847 C1.22853765,5.28234616 15.2235376,4.60327539 21.1185376,15.9248323 C20.4547876,11.86154 18.8460376,6.80747232 15.2347876,1.75340462 C14.9755109,1.40373025 14.9533441,0.934324036 15.1785376,0.5622477 C15.3922876,0.183749238 15.7972876,-0.0388969154 16.2472876,0.00563231533 C16.5735376,0.0390292384 23.0985376,0.718100008 28.1497876,7.05238308 C24.6847876,12.4070231 22.9072876,18.0733677 22.0747876,21.3685308 L11.3422876,21.3685308 Z" id="Path"></path>
                <path d="M25,21.3608116 C26.35,16.1954208 29.9275,5.99822695 38.17375,0.198294646 C38.5954667,-0.0897968521 39.1601838,-0.0615390286 39.5503799,0.267179691 C39.940576,0.595898411 40.0588703,1.14304012 39.83875,1.60096541 C39.79375,1.69002388 35.92375,9.56056541 37.20625,21.3608116 L25,21.3608116 Z" id="Path"></path>
            </g>
        </g>
    </g>
</svg>