<?xml version="1.0" encoding="UTF-8"?>
<svg width="133px" height="153px" viewBox="0 0 133 153" version="1.1" xmlns="http://www.w3.org/2000/svg" xmlns:xlink="http://www.w3.org/1999/xlink">
    <title>oh-no</title>
    <g id="Page-1" stroke="none" stroke-width="1" fill="none" fill-rule="evenodd">
        <g id="No-Results" transform="translate(-443.000000, -304.000000)">
            <g id="oh-no" transform="translate(445.000000, 304.000000)">
                <path d="M69.5610535,141.735977 C69.6620197,141.73407 70.4814875,141.492278 70.582618,141.480962 C72.1517015,141.300686 73.3082629,139.970724 73.16819,138.509979 C72.0435293,126.80187 64.0723207,106.256339 59.1646468,100.037957 C58.2447248,98.8727002 56.4626754,98.6552099 55.1842368,99.5554288 C53.9073063,100.454236 53.6177467,102.128591 54.5376687,103.293847 C58.5123388,108.330523 66.4115767,127.952779 67.4883126,139.159187 C67.6195879,140.525687 68.1208059,141.758447 69.5610535,141.735977 Z" id="Path" fill="#4A4A4A" fill-rule="nonzero" transform="translate(63.589841, 120.367989) rotate(284.000000) translate(-63.589841, -120.367989) "></path>
                <path d="M78,83.4108934 L78,89.6926222 C78,91.5757196 80.0014579,93.1035156 82.4735727,93.1035156 C84.9433576,93.1035156 86.9471453,91.5757196 86.9471453,89.6926222 L86.9471453,83.4108934 C86.9471453,81.527796 84.9433576,80 82.4735727,80 C80.0014579,80 78,81.527796 78,83.4108934 Z" id="Path" fill="#4A4A4A" fill-rule="nonzero"></path>
                <path d="M42,83.4108934 L42,89.6926222 C42,91.5757196 44.0014579,93.1035156 46.4735727,93.1035156 C48.9433576,93.1035156 50.9471453,91.5757196 50.9471453,89.6926222 L50.9471453,83.4108934 C50.9471453,81.527796 48.9433576,80 46.4735727,80 C44.0014579,80 42,81.527796 42,83.4108934 Z" id="Path" fill="#4A4A4A" fill-rule="nonzero"></path>
                <g id="Layer_1" transform="translate(11.000000, 0.000000)" fill="#4A4A4A">
                    <path d="M26.8282231,52.7918725 C22.943173,41.8732435 14.8005336,24.1064062 1.62861692,18.3583118 C0.48438982,17.8632606 -0.154248563,16.6256327 0.0320209655,15.3605018 C0.244900426,14.095371 1.25607787,13.1602743 2.5067447,13.0777658 C2.90589369,13.0502629 36.0086499,11.3725895 49.9522546,39.3429818 C48.3822685,29.3044438 44.5770482,16.8181526 36.0352598,4.33186139 C35.4219854,3.46797584 35.3695537,2.30828764 35.9022101,1.38905708 C36.4077989,0.453960381 37.3657564,-0.0960964993 38.4301537,0.0139148768 C39.2018418,0.0964234089 54.6356027,1.77409689 66.5834625,17.4232151 C58.3876032,30.6520831 54.1832339,44.6510307 52.2140988,52.7918725 L26.8282231,52.7918725 Z" id="Path"></path>
                    <path d="M59.1258741,52.7728019 C62.319066,40.0114823 70.7810246,14.8188772 90.2861052,0.489895434 C91.2836032,-0.221846978 92.619344,-0.152034812 93.5422855,0.660078896 C94.4652271,1.4721926 94.7450319,2.82392968 94.2243753,3.95525378 C94.1179355,4.17527653 84.9641187,23.6197873 87.997651,52.7728019 L59.1258741,52.7728019 Z" id="Path"></path>
                </g>
                <line x1="0.5" y1="59.9360352" x2="127" y2="59.9360352" id="Line" stroke="#4A4A4A" stroke-width="5" stroke-linecap="round"></line>
                <line x1="114.5" y1="149.936035" x2="128" y2="59.9360352" id="Line" stroke="#4A4A4A" stroke-width="5" stroke-linecap="round"></line>
                <line x1="1.5" y1="149.936035" x2="15" y2="59.9360352" id="Line" stroke="#4A4A4A" stroke-width="5" stroke-linecap="round" transform="translate(8.000000, 104.500000) scale(-1, 1) translate(-8.000000, -104.500000) "></line>
                <line x1="15" y1="150" x2="114" y2="150" id="Line" stroke="#4A4A4A" stroke-width="5" stroke-linecap="round"></line>
            </g>
        </g>
    </g>
</svg>