<?xml version="1.0" encoding="UTF-8"?>
<svg width="33px" height="24px" viewBox="0 0 33 24" version="1.1" xmlns="http://www.w3.org/2000/svg" xmlns:xlink="http://www.w3.org/1999/xlink">
    <title>Shape</title>
    <g id="Page-1" stroke="none" stroke-width="1" fill="none" fill-rule="evenodd">
        <g id="Home" transform="translate(-952.000000, -62.000000)" fill="#000000" fill-rule="nonzero">
            <g id="Layer_1" transform="translate(941.000000, 47.000000)">
                <path d="M33.0360417,21.2934481 L33.0750878,24.2916942 C33.0900417,25.2877865 33.8834263,26.0388019 34.9252109,26.0388019 C35.3081955,26.0388019 35.6895186,25.934125 36.0384417,25.7272634 L42.2625647,21.8783096 C42.8374571,21.5360327 43.1647801,21.0134788 43.1566268,20.4427404 C43.1489955,19.8354481 42.7709955,19.2780019 42.1404417,18.924925 L35.9370878,15.2180327 C35.1403801,14.7735711 34.0595494,14.9031711 33.4655494,15.5071404 C33.1426767,15.835112 32.9664424,16.2798938 32.9770571,16.7400019 L33.0144417,19.6327404 C31.3811494,19.6933865 27.9018878,20.4020327 25.0008417,24.8989865 C23.7239494,21.6091404 21.8505647,19.3951404 19.4122571,18.3276019 C15.7626878,16.7316942 12.259334,18.3217865 12.1114571,18.3899096 C11.6953062,18.5835321 11.5149114,19.0778511 11.708534,19.4940019 C11.9021565,19.9101527 12.3964755,20.0905475 12.8126263,19.896925 C12.842534,19.8819711 15.7759801,18.5502481 18.7468109,19.8495711 C21.0123186,20.8406788 22.7270263,23.1078481 23.8444109,26.5862788 C23.869334,26.6643711 23.8992417,26.7316634 23.9249955,26.808925 L23.8884417,26.8803711 C19.4645955,35.9656634 13.0211494,33.7549865 12.7536417,33.656125 C12.3235782,33.4979685 11.8464106,33.7159752 11.6844417,34.1446173 C11.524934,34.5749557 11.7425955,35.0534788 12.172934,35.2138173 C12.2011801,35.2237865 13.2255186,35.5868327 14.7657647,35.5868327 C17.3968109,35.5868327 21.5307186,34.5217865 24.7541032,28.806925 C27.1001955,33.3686788 30.9225647,33.9867711 32.8233647,33.9867711 C32.8931494,33.9867711 32.9479801,33.9834481 33.0127801,33.9817865 L32.9762263,36.8363096 C32.9687494,37.3048634 33.1423801,37.7443404 33.4647186,38.0708327 C33.8186263,38.429725 34.3312109,38.6357557 34.874534,38.6357557 C35.2537799,38.6343438 35.6262804,38.5353537 35.9561955,38.3483096 L42.1188417,34.6646788 C42.7685032,34.2999711 43.1465032,33.7433557 43.1539801,33.1344019 C43.1614571,32.5644942 42.8349647,32.0411096 42.2717032,31.7063096 L36.0226571,27.8432327 C35.6903539,27.6446542 35.3106641,27.5393283 34.9235494,27.5383404 C33.8817647,27.5383404 33.0883801,28.2893557 33.0734263,29.2871096 L33.0335494,32.3426788 C31.5539494,32.4257557 27.7598263,32.0884634 25.7369032,26.9443404 C28.3754263,22.0502788 31.6652724,21.3499404 33.0360417,21.2934481 L33.0360417,21.2934481 Z M34.8761955,16.6045865 C34.9376724,16.6045865 35.0323801,16.6162173 35.1046571,16.6560942 L41.3063494,20.3621557 C41.3570263,20.3904019 41.3952417,20.4178173 41.4259801,20.4410788 L41.4010571,20.4576942 L35.1752724,24.3066481 C34.8687186,24.4902481 34.7391186,24.3764327 34.7374571,24.2700942 L34.6510571,16.6727096 C34.6834571,16.6394788 34.7657032,16.6045865 34.8761955,16.6045865 L34.8761955,16.6045865 Z M34.7366263,29.3103711 C34.7374571,29.238925 34.8014263,29.2015404 34.9252109,29.2015404 C34.9833647,29.2015404 35.0764109,29.2148327 35.1636417,29.2680019 L41.4118571,33.1302481 L41.4259801,33.1385557 C41.3927494,33.1643096 41.3478878,33.1942173 41.2880724,33.2282788 L35.1270878,36.9110788 C34.8620724,37.0564634 34.7058878,36.9850173 34.6394263,36.8595711 L34.7366263,29.3103711 Z" id="Shape"></path>
            </g>
        </g>
    </g>
</svg>